<svg width="40" height="35" viewBox="0 0 40 35" fill="none" xmlns="http://www.w3.org/2000/svg">
<g clip-path="url(#clip0_13_23)">
<path d="M3.75 0C1.67969 0 0 1.65486 0 3.69458V30.7882C0 32.8279 1.67969 34.4828 3.75 34.4828H36.25C38.3203 34.4828 40 32.8279 40 30.7882V3.69458C40 1.65486 38.3203 0 36.25 0H3.75ZM3.75 2.46305H12.0313C12.2891 2.46305 12.5 2.67087 12.5 2.92488V4.46429C12.5 4.71829 12.2891 4.92611 12.0313 4.92611H2.96875C2.71094 4.92611 2.5 4.71829 2.5 4.46429V3.69458C2.5 3.01724 3.0625 2.46305 3.75 2.46305ZM37.0313 9.85222H2.96875C2.71094 9.85222 2.5 9.6444 2.5 9.39039V6.61946C2.5 6.36546 2.71094 6.15764 2.96875 6.15764H13.75L16.1094 2.67087C16.1953 2.54002 16.3437 2.46305 16.5 2.46305H36.25C36.9375 2.46305 37.5 3.01724 37.5 3.69458V9.39039C37.5 9.6444 37.2891 9.85222 37.0313 9.85222ZM20 30.1724C14.8281 30.1724 10.625 26.0314 10.625 20.936C10.625 15.8405 14.8281 11.6995 20 11.6995C25.1719 11.6995 29.375 15.8405 29.375 20.936C29.375 26.0314 25.1719 30.1724 20 30.1724ZM20 14.1626C16.2109 14.1626 13.125 17.2029 13.125 20.936C13.125 24.669 16.2109 27.7094 20 27.7094C23.7891 27.7094 26.875 24.669 26.875 20.936C26.875 17.2029 23.7891 14.1626 20 14.1626ZM16.25 22.1675C15.5625 22.1675 15 21.6133 15 20.936C15 18.2189 17.2422 16.0099 20 16.0099C20.6875 16.0099 21.25 16.564 21.25 17.2414C21.25 17.9187 20.6875 18.4729 20 18.4729C18.625 18.4729 17.5 19.5813 17.5 20.936C17.5 21.6133 16.9375 22.1675 16.25 22.1675Z" fill="black"/>
<path d="M39.3829 0.95713L-5.78052e-06 34" stroke="#DD6763" stroke-width="3"/>
</g>
<defs>
<clipPath id="clip0_13_23">
<rect width="40" height="34.4828" rx="4" fill="white"/>
</clipPath>
</defs>
</svg>
