<svg width="80" height="80" viewBox="0 0 80 80" fill="none" xmlns="http://www.w3.org/2000/svg">
<path d="M40 0C17.9081 0 0 17.9081 0 40C0 62.0919 17.9081 80 40 80C62.0919 80 80 62.0919 80 40C80 17.9081 62.0919 0 40 0ZM40 69.6774C23.5984 69.6774 10.3226 56.4048 10.3226 40C10.3226 23.5984 23.5952 10.3226 40 10.3226C56.4016 10.3226 69.6774 23.5952 69.6774 40C69.6774 56.4016 56.4048 69.6774 40 69.6774ZM40 19.3548C28.5984 19.3548 19.3548 28.5984 19.3548 40C19.3548 51.4016 28.5984 60.6452 40 60.6452C51.4016 60.6452 60.6452 51.4016 60.6452 40C60.6452 28.5984 51.4016 19.3548 40 19.3548ZM40 50.3226C34.3081 50.3226 29.6774 45.6919 29.6774 40C29.6774 34.3081 34.3081 29.6774 40 29.6774C45.6919 29.6774 50.3226 34.3081 50.3226 40C50.3226 45.6919 45.6919 50.3226 40 50.3226Z" fill="black"/>
</svg>
