<svg width="33" height="34" viewBox="0 0 33 34" fill="none" xmlns="http://www.w3.org/2000/svg">
<path d="M16.5 0C7.38708 0 0 7.61093 0 17C0 26.3891 7.38708 34 16.5 34C25.6129 34 33 26.3891 33 17C33 7.61093 25.6129 0 16.5 0ZM27.1452 14.7722V15.2472C27.1452 15.6496 26.9243 16.0177 26.575 16.1973L25.551 16.7251C25.3884 16.809 25.2072 16.847 25.0257 16.8353C24.8443 16.8236 24.669 16.7627 24.5178 16.6586L23.3063 15.8265C23.1756 15.7368 23.0267 15.679 22.8711 15.6575C22.7154 15.636 22.5571 15.6513 22.4081 15.7024L22.2318 15.7627C21.5864 15.9841 21.3229 16.7765 21.7002 17.3599L22.581 18.7212C22.772 19.0167 23.094 19.1942 23.4386 19.1942H23.9849C24.5544 19.1942 25.0161 19.67 25.0161 20.2567V21.0341C25.0161 21.2637 24.9436 21.4879 24.8099 21.6716L23.5631 23.3839C23.4686 23.5142 23.4041 23.665 23.3748 23.8247L23.0887 25.3896C23.0474 25.6152 22.9363 25.8208 22.772 25.9764C22.1415 26.5713 21.583 27.2424 21.1087 27.9753L20.2418 29.3154C20.0732 29.576 19.8447 29.7897 19.5767 29.9375C19.3088 30.0853 19.0095 30.1626 18.7055 30.1627C18.0063 30.1627 17.3669 29.7555 17.0542 29.1111C16.6897 28.36 16.5 27.5318 16.5 26.6921V24.6431C16.5 24.0564 16.0383 23.5806 15.4688 23.5806H13.7469C12.7828 23.5806 11.8587 23.1858 11.1768 22.4839C10.4953 21.7814 10.1124 20.829 10.1122 19.8358V18.8721C10.1122 17.6937 10.6511 16.5839 11.566 15.8765L13.4009 14.4582C14.0302 13.9721 14.7954 13.7092 15.5819 13.709H15.6411C16.2053 13.709 16.7621 13.844 17.2665 14.1045L18.2458 14.609C18.4906 14.7352 18.7734 14.7557 19.0329 14.6666L22.1805 13.5856C22.6017 13.441 22.8858 13.0352 22.8858 12.5779C22.8858 11.9912 22.424 11.5154 21.8545 11.5154H21.1832C20.9098 11.5154 20.6476 11.4037 20.454 11.2042L19.9936 10.7299C19.8979 10.6312 19.7842 10.5529 19.6591 10.4995C19.534 10.4461 19.3998 10.4186 19.2644 10.4187H13.2732C12.7037 10.4187 12.2419 9.94294 12.2419 9.35617V9.05456C12.2419 8.56718 12.564 8.14218 13.023 8.02359L13.9844 7.77613C14.2332 7.71169 14.4501 7.55472 14.5925 7.33468L15.1301 6.50456C15.321 6.20911 15.6431 6.03157 15.9877 6.03157H17.5984C18.168 6.03157 18.6297 5.55585 18.6297 4.96907V3.48157C23.9004 4.36173 28.1338 8.43282 29.4026 13.7097H28.1764C27.6069 13.7097 27.1452 14.1854 27.1452 14.7722Z" fill="black"/>
</svg>
