<svg width="33" height="41" viewBox="0 0 33 41" fill="none" xmlns="http://www.w3.org/2000/svg">
<path d="M32.998 24.3438C32.998 33.5447 25.6131 41 16.499 41C7.38489 41 0 33.5447 0 24.3438C0 16.0156 6.05228 9.11289 13.9607 7.8877V5.125H11.7397C11.2162 5.125 10.7878 4.69258 10.7878 4.16406V0.960938C10.7878 0.432422 11.2162 0 11.7397 0H21.2583C21.7819 0 22.2102 0.432422 22.2102 0.960938V4.16406C22.2102 4.69258 21.7819 5.125 21.2583 5.125H19.0373V7.8877C22.0119 8.35215 24.7247 9.61738 26.9457 11.4592L29.1271 9.25703C29.4999 8.88066 30.1028 8.88066 30.4756 9.25703L32.7204 11.5232C33.0932 11.8996 33.0932 12.5082 32.7204 12.8846L30.3883 15.2389L30.3407 15.2869C32.0224 17.8814 32.998 20.9965 32.998 24.3438ZM19.0373 27.2266V15.0947C19.0373 14.5662 18.609 14.1338 18.0855 14.1338H14.9126C14.389 14.1338 13.9607 14.5662 13.9607 15.0947V27.2266C13.9607 27.7551 14.389 28.1875 14.9126 28.1875H18.0855C18.609 28.1875 19.0373 27.7551 19.0373 27.2266Z" fill="black"/>
<ellipse cx="16.2452" cy="24.6" rx="14.6207" ry="14.76" fill="black"/>
<path d="M16.7175 31.209C16.0461 31.209 15.4255 31.038 14.8555 30.696C14.2981 30.3413 13.8485 29.8727 13.5065 29.29C13.1771 28.7073 13.0125 28.0677 13.0125 27.371V26.516C13.0125 26.4527 13.0378 26.421 13.0885 26.421H15.2165C15.2798 26.421 15.3115 26.4527 15.3115 26.516V27.371C15.3115 27.789 15.4445 28.15 15.7105 28.454C15.9765 28.7453 16.3121 28.891 16.7175 28.891C17.1608 28.891 17.5091 28.739 17.7625 28.435C18.0158 28.1183 18.1425 27.7637 18.1425 27.371V26.858C18.1425 26.4653 18.0158 26.1107 17.7625 25.794C17.5218 25.4773 17.2115 25.319 16.8315 25.319H16.0905C16.0271 25.319 15.9955 25.2873 15.9955 25.224L16.0145 23.096C16.0145 23.0453 16.0398 23.02 16.0905 23.02H16.8315C17.1735 23.02 17.4775 22.887 17.7435 22.621C18.0095 22.355 18.1425 22.0067 18.1425 21.576V21.31C18.1425 20.9047 18.0031 20.5627 17.7245 20.284C17.4585 19.9927 17.1228 19.847 16.7175 19.847C16.3248 19.847 15.9891 19.9927 15.7105 20.284C15.4445 20.5627 15.3115 20.9047 15.3115 21.31V22.222C15.3115 22.2853 15.2861 22.317 15.2355 22.317H13.1075C13.0568 22.317 13.0315 22.2853 13.0315 22.222V21.215C13.0315 20.5183 13.2025 19.8977 13.5445 19.353C13.8991 18.8083 14.3551 18.3777 14.9125 18.061C15.4825 17.7317 16.0841 17.567 16.7175 17.567C17.4015 17.567 18.0221 17.738 18.5795 18.08C19.1495 18.4093 19.5991 18.8527 19.9285 19.41C20.2578 19.9673 20.4225 20.5817 20.4225 21.253V21.557C20.4225 22.1143 20.3275 22.5957 20.1375 23.001C19.9601 23.4063 19.7068 23.7927 19.3775 24.16C19.7068 24.54 19.9665 24.958 20.1565 25.414C20.3465 25.8573 20.4415 26.3197 20.4415 26.801V27.371C20.4415 28.0803 20.2705 28.7263 19.9285 29.309C19.5991 29.8917 19.1495 30.354 18.5795 30.696C18.0221 31.038 17.4015 31.209 16.7175 31.209Z" fill="white"/>
</svg>
